<?xml version="1.0" encoding="utf-8"?>
<!-- Generator: Adobe Illustrator 27.5.0, SVG Export Plug-In . SVG Version: 6.00 Build 0)  -->
<svg version="1.1" id="Layer_1" xmlns="http://www.w3.org/2000/svg" xmlns:xlink="http://www.w3.org/1999/xlink" x="0px" y="0px"
	 viewBox="0 0 4000 4000" style="enable-background:new 0 0 4000 4000;" xml:space="preserve">
<g>
	<g>
		<rect x="0.5" y="0.5" style="fill:#FFFFFF;" width="3999" height="3999"/>
		<path d="M3999,1v3998H1V1H3999 M4000,0H0v4000h4000V0L4000,0z"/>
	</g>
</g>
<path style="fill:#231916;" d="M2631.725,2031.112c-11.335,142.224-5.634,247.937,144.491,429.548l-297.283,191.768l-35.793-53.83
	l164.528-140.458c-58.001-30.261-96.264-84.065-126.241-153.47C2526.282,2210.685,2583.924,2123.414,2631.725,2031.112"/>
<path style="fill:#231916;" d="M2021.705,2263.576c-53.321,75.144-137.465,174.021-247.719,241.572l-45.748,280.205h-95.871
	l-76.169-315.453c82.598-68.403,154.766-155.923,210.191-245.064C1838.803,2254.992,1933.033,2264.467,2021.705,2263.576"/>
<path style="fill:#231916;" d="M1944.924,1826.151c0,0,78.468-15.885,139.421-65.449c-118.111,18.22-262.979-13.776-400.743-44.231
	c-72.734-16.072-143.367-31.69-204.639-38.275c-81.663-8.764-147.599-0.976-180.354,47.022
	c54.613-9.318,98.987,12.058,99.172,12.141l39.253,18.728l-28.451,32.703c-205.001,235.626,163.283,395.924-64.54,655.986
	l18.935,155.101l20.89-147.457c175.189-101.082,259.842-336.031,342.476-510.851l25.485,86.727
	c112.648,86.428,398.879,48.896,399.704,48.776l3.987-112.326c138.948,183.935,99.903,449.86,149.512,533.698
	c-83.554-475.289,564.545-508.794,196.177-1191.975l-23.003-42.608l48.105-5.735c21.544-2.569,37.824-9.264,49.995-17.141
	c-148.507-18.553-268.862-71.008-288.272-79.804l-34.002-8.576l-257.802,181.27c5.643,21.417,6.49,20.898,6.493,20.898l62.167,1.869
	l7.306,4.284c46.204,27.118,59.496,65.216,60.145,98.898c19.101-25.917,15.557-59.693,15.542-59.845l-4.209-41.326l41.25,5.367
	C2432.406,1396.264,2341.665,1837.039,1944.924,1826.151 M1325.066,1788.51c-17.951,0.445-39.228,5.673-59.682,22.179
	l-61.961,49.995l8.502-79.144c16.81-156.522,126.647-184.684,273.981-168.867c65.426,7.022,137.539,22.972,211.804,39.387
	c238.136,52.641,500.22,110.555,557.359-138.188c0.737-9.385,1.709-54.091-44.109-75.057
	c-7.728,42.916-34.246,102.482-120.865,114.394l-62.296,8.563l28.363-56.064c0.08-0.159,28.019-54.049-11.03-83.67l-47.824-1.361
	c-0.131-0.012-48.294-1.991-70.532-92.969l-5.323-21.752l319.582-224.695l69.309,17.49l2.664,1.242
	c0.442,0.203,152.198,71.784,329.105,80.685l44.289,2.229l-14.855,41.656c-0.075,0.207-21.471,62.155-93.8,88.715
	c386.107,700.049-323.691,824.982-183.252,1472.075h-106.725c-40.124-144.262-116.159-547.782-128.988-559.591
	c-54.78,6.955-275.54,29.603-403.487-37.42c-39.061,66.282-142.258,222.244-296.597,316.806l-45.748,280.205h-95.869
	l-80.794-334.602l12.354-13.081c101.182-107.155,73.889-201.077,45.677-298.188C1263.31,2032.759,1231.36,1922.743,1325.066,1788.51
	z"/>
<path style="fill:#231916;" d="M2079.363,1196.044l384.244-270.153c88.584-62.286,175.71-58.838,238.662-28.055
	c54.399,26.591,105.772,83.045,94.349,147.661c-20.099,113.744-201.506,158.21-237.326,44.795
	c-18.655-59.031,46.652-124.438,121.472-48.102c-31.581-11.505-67.508-0.465-58.449,28.21
	c20.442,64.768,200.613-40.284,51.025-113.411c-44.088-21.563-106.359-23.097-171.757,22.887l-384.247,270.156L2079.363,1196.044z"
	/>
<path style="fill:#231916;" d="M2824.156,2935.033c-21.886-17.217-45.812-24.221-76.453-24.221
	c-43.187,0-85.496,18.677-85.496,61.862c0,50.772,38.518,62.152,83.164,66.239c22.467,2.04,34.139,8.464,34.139,18.674
	c0,11.379-13.131,18.092-32.099,18.092c-17.214,0-39.685-3.503-59.817-23.052l-31.807,36.476
	c28.305,29.763,54.567,36.182,91.334,35.889c45.811-0.288,89.579-20.131,89.579-66.528c0-46.98-42.309-63.321-82.871-67.697
	c-20.131-2.044-33.847-4.087-33.847-18.092c0-10.798,13.717-15.174,27.721-15.174c17.8,0,33.85,3.503,47.856,14.008
	L2824.156,2935.033z M2527.397,3119.156h57.483V2962.46h59.82v-47.562H2467.87v47.562h59.528V3119.156z M2391.714,3037.162h-52.234
	l26.265-65.071L2391.714,3037.162z M2424.686,3119.156h61.86l-91.331-204.258h-58.361l-91.622,204.258h61.274l13.423-33.558h91.335
	L2424.686,3119.156z M2189.498,3017.027c0,33.848-21.886,57.776-55.736,57.776c-32.681,0-55.732-23.636-55.732-57.776
	c0-33.849,22.76-57.776,55.732-57.776C2167.612,2959.251,2189.498,2982.011,2189.498,3017.027z M2247.274,3017.027
	c0-67.99-46.397-107.09-113.513-107.09c-66.82,0-113.509,39.978-113.509,107.09c0,68.283,46.689,107.09,113.509,107.09
	C2200.878,3124.117,2247.274,3085.31,2247.274,3017.027z M1991.659,2942.034c-26.847-27.136-51.942-32.973-80.243-32.973
	c-76.745,0-111.761,54.858-111.761,108.259c0,53.397,30.64,107.383,111.468,107.383c39.392,0,74.991-14.008,87.829-39.978v-90.749
	h-99.795v45.228h51.65v26.264c-11.672,8.461-28.597,10.504-39.392,10.504c-41.144,0-54.859-32.388-54.859-58.651
	c0-39.977,21.593-59.819,54.859-59.819c13.712,0,31.804,3.794,46.686,17.799L1991.659,2942.034z M1708.612,3081.224h-114.678
	v-46.105h110.592v-35.891h-110.592v-47.273h114.678v-37.349h-152.901c0,68.186,0,136.562,0,204.551h152.901V3081.224z
	 M1520.113,3119.156V2915.19h-38.227v86.081h-100.378v-86.081h-38.518v203.966h38.518v-82.287h100.378v82.287H1520.113z
	 M1216.058,3119.156h38.518v-169.533h64.781v-35.017c-59.235,0-109.133,0-168.076,0v35.017h64.777V3119.156z"/>
</svg>
